# xmcd
# 
# Track frame offsets:
#     150
#     15754
#     33677
#     53171
#     56919
#     75996
#     93204
#     102023
#     114375
#     132330
#     152518
#     167991
#     177370
# 
# Disc length: 2684
# 
# Revision: 3
# Processed by: cddbd v1.5.2PL0 Copyright (c) Steve Scherf et al.
# Submitted via: fre:ac v1.0.17
# 
DISCID=970a7a0d
DTITLE=Yohimbe Brothers - Tao Of Yo
DYEAR=2003
DGENRE=NuJazz
TTITLE0=Shine For Me
TTITLE1=The Secret Frequency
TTITLE2=More From Life
TTITLE3=Shape 4
TTITLE4=Noh Rio
TTITLE5=Tv
TTITLE6=30 Spokes
TTITLE7=Unimportance
TTITLE8=No Pistolas
TTITLE9=Overcoming
TTITLE10=Words They Choose
TTITLE11=Shape 1
TTITLE12=Perfect Traveller (Tourist Europe)
EXTD=YEAR: 2003
EXTT0=
EXTT1=
EXTT2=
EXTT3=
EXTT4=
EXTT5=
EXTT6=
EXTT7=
EXTT8=
EXTT9=
EXTT10=
EXTT11=
EXTT12=
PLAYORDER=
